<svg xmlns="http://www.w3.org/2000/svg" xmlns:xlink="http://www.w3.org/1999/xlink" width="445" height="297" xmlns:v="https://vecta.io/nano"><style><![CDATA[.Y{fill:#ffb27d}.Z{fill:#ffc197}.a{fill:#efa26f}.b{fill:#ffd3b6}]]></style><ellipse cx="223.8" cy="273.8" rx="184.3" ry="18.7" opacity=".28" fill="#e3e6e8"/><path d="M243.9 119.9s-14.6 29.2-29.4 49.3c-5.9 8-11.8 14.6-16.9 17.3-5 2.7-9.1 6.9-12.6 11.5-9 12-13.1 27-13.1 27L134 167.7s1.3-56 5.8-65.4c6.6-13.6 9.8-41.2 12.4-46.7 1.9-4.1 7.3-25.1 7.8-26.7.2-.7 2-1.7 4.3-1.7 1.9 0 5 1.8 5.8 5.5 4 18.8-.8 31.2-.8 31.7 1.4 14.4-2.9 25.1.1 28 .1.1.3.1.6-.1 5.2-3.4 37.6-50.6 41.6-51.6 4.4-1.1 32.3 79.2 32.3 79.2z" class="Y"/><path d="M183.3 213.6l-2 59.7H85.8l40.8-85.7s54.4 1.7 56.7 26z" fill="#f99746"/><path d="M277 21.2l-23.2 34.1a3.01 3.01 0 0 1-2.4 1.1c-2.8-.3-6.2-4.2-8.8-6.4l-.3-.2c-3.5-2.9-4-8.2-1.1-11.7L264 10.5c2.9-3.5 8.2-4 11.7-1.1l.3.2c3.4 2.8 3.9 8.1 1 11.6z" class="Y"/><path d="M265.3 38.4l-11.5 16.9a3.01 3.01 0 0 1-2.4 1.1l7.4-39.6c0 .1 1.2 17.9 6.5 21.6zm-50.8 130.8c-5.9 8-11.8 14.6-16.9 17.3-5 2.7-9.1 6.9-12.6 11.5l-13-6.2c-5.4-2.6-5.6-10.3-.3-13.2.1 0 .1-.1.2-.1 5-2.8 10.1-12.9 10.1-12.9l32.5 3.6z" class="a"/><path d="M159.8 29.8l-3.1 12.4s2.7 1.1 4.4.2c1.7-.8 3.1-11.9-1.3-12.6z" class="Z"/><path d="M254.7 175h-79.3c-2.8 0-5.1-2.3-5.1-5.1V11.5c0-2.8 2.3-5.1 5.1-5.1h79.3c2.8 0 5.1 2.3 5.1 5.1v158.4c0 2.8-2.3 5.1-5.1 5.1z" fill="#6ba4ce"/><path d="M255.4 19.3V161a8.71 8.71 0 0 1-8.7 8.7h-63.3a8.71 8.71 0 0 1-8.7-8.7V19.3a8.71 8.71 0 0 1 8.7-8.7h63.3a8.71 8.71 0 0 1 8.7 8.7z" fill="#fff"/><path d="M198.8 7.4h34.3v8.5h-34.3z" fill="#6486a9"/><path d="M271.2 86.1l-1.7.7-11.8 4.5-.8.3c-3.9 1-8-1.1-9.5-4.9l-.2-.5c-1.6-4.1.5-8.8 4.6-10.3l11-4.2.8-.3 1.7-.7c4.1-1.6 8.8.5 10.3 4.6l.2.5c1.6 4.1-.5 8.7-4.6 10.3z" class="Y"/><path d="M261.6 86.4c-2 .7-5.5 2.1-7.4 2.3-.5.1-1.5-.2-2.5-1.2-.6-.6-1.1-1.5-1.5-2.7-.2-.6-.3-1.1-.4-1.7-.1-.7-.1-1.4.1-2 .1-.6.5-1.2 1.1-1.4a45.65 45.65 0 0 1 7.1-2.8c1.7-.5 3.3.3 3.8 1.7l.2.7 1.3 3.5c.7 1.3-.2 3-1.8 3.6z" class="b"/><path d="M261.6 86.4c-2 .7-5.5 2.1-7.4 2.3-.5.1-1.5-.2-2.5-1.2-.1-.2-.2-.5-.3-.7-.2-.6-.3-1.1-.4-1.7-.1-.7-.1-1.4.1-2 .1-.6.5-1.2 1.1-1.4a45.65 45.65 0 0 1 7.1-2.8c1.1-.3 2.1-.1 2.9.5l1.3 3.5c.6 1.2-.3 2.9-1.9 3.5z" class="Z"/><path d="M265.8 102.6l-9.1 2.5c-2.8.8-5.6-.9-6.4-3.6l-.3-1c-.8-2.8.9-5.6 3.6-6.4l9.1-2.5c2.8-.8 5.6.9 6.4 3.6l.3 1c.8 2.8-.8 5.7-3.6 6.4z" class="Y"/><path d="M260.9 102.2l-6.3 1.3c-.6 0-1.7-.5-2.5-2-.2-.4-.3-.8-.5-1.3-.1-.4-.2-.9-.2-1.3 0-.5.1-1 .2-1.6.1-.5.5-.9 1-1 1.7-.6 4-1.3 6.1-1.7 1.4-.2 2.7.4 3 1.6l.2.8.7 2.5c.5 1.1-.3 2.3-1.7 2.7z" class="b"/><path d="M260.9 102.2l-6.3 1.3c-.6 0-1.7-.5-2.5-2-.1-.4-.2-.8-.2-1.3s.1-1 .2-1.6c.1-.5.5-.9 1-1 1.7-.6 4-1.3 6.1-1.7 1.1-.2 2.2.2 2.8 1l.7 2.5c.4 1.2-.4 2.4-1.8 2.8z" class="Z"/><path d="M117.3 206.9s18.7 17.9 31.2 24.8l9.5-6.8v10s18.7 3.3 24.6 0v-27.2L130 181.3l-12.7 25.6z" fill="#ed7d2b"/><path d="M186.7 232.7c-7.2 1.5-22.9-4.2-22.9-4.2l2.5-24.3-17.7 20.2c-9-3.3-23-12.1-31.4-17.5-4.2-2.7-6.9-4.6-6.9-4.6 11.8-19 23.6-36.7 23.6-36.7 3.5 7 11.7 13 20.6 17.8 14.8 8 31.6 12.7 31.6 12.7l.6 36.6z" fill="#dceaff"/><path d="M270.9 68.7c-.1 0-.1 0-.2.1l-11.9 3.1c-5.2 1.3-10.6-1.5-12-6.3l-.7-2.5c-1.3-4.6 1.5-9.4 6.4-11l3.9-1 8-2c5.2-1.3 10.6 1.5 12 6.3l.7 2.5c1.3 4.4-1.5 9.2-6.2 10.8z" class="Y"/><path d="M265.4 65.4l-5.8 2.6c-.2.1-.5.1-.7.1h-.4c-.6 0-1.1-.7-.8-1.3.5-1.2.7-2.6.3-3.9l-.1-.5-.4-1.6c-.4-1.3-1.1-2.4-2.1-3.2-.1-.1-.2-.2-.4-.3-1.1-.8-.9-2.6.5-3l6.3-1c1.6-.4 3.1.8 3.5 2.3l.5 1.9 1.1 4c.5 1.7.1 3.5-1.5 3.9z" class="b"/><path d="M265.4 65.4l-5.8 2.6c-.1 0-.6.1-1.1.2-.6 0-1.1-.7-.8-1.3.5-1.2.7-2.6.3-3.9l-.1-.5-.4-1.6c-.4-1.3-1.1-2.4-2.1-3.2.2-.3.5-.5.9-.6l6.3-1c1.3-.4 2.6.4 3.2 1.6l1.1 4c.5 1.5.1 3.3-1.5 3.7z" class="Z"/><path d="M170.2 130.5s-2.6-22.6-5-27.1c-2.4-4.4-4.4-13.3-.7-19.8 3.7-6.6 5-19.2 5-19.2 1.4 14.4-2.9 25.1.1 28 .1.1.3.1.6-.1v38.2z" class="a"/><path d="M351.6 273.4h-70c-3.4-2.3-20.8-14.2-28-23-1.5-1.9-7.1-18.1-11.4-31.2-2.7-8.2-4.9-15.2-5.2-16.9-.1-.6-.2-1.7-.3-3.2h0c-.2-5.4.1-15.8.3-24h0v-1.3c0-1.4.1-2.8.1-4l.2-6.3v-.4c.1-.1 3.5-1.9 8 1.4 1.1.8 2.1 2.7 3 5.1.6 1.6 1.1 3.4 1.6 5.3 2 7.3 3.4 16.1 4.1 18.5 1.2 3.8 15.5 20.5 16.4 21.5v.1-26.4l-10.8-28.9-4.4-11.9-2.2-6s-3.4-5.6-6.3-12.4c-1.3-3-2.4-6.1-3.1-9.1-.2-.7-.3-1.4-.4-2.1-.4-2.6-.5-4.9.1-6.8 1-3.4 3.4-4.1 5.2-4h.5c.2 0 .4.1.5.1.3.1.6.2.9.4.5.3.9.6 1.2 1.1l3.6 4.7c1.3 1.8 2.9 3.8 4.4 5.8l5.9 7.8c3.7 5.2 13.7 22.3 13.7 22.3l11.7.5c1.9.1 3.6.8 5 2.1l14.3 13.6c0 .4 7 3.8 12.4 6.8 3.9 1.6 11.2 7.4 11.2 7.4 1.5 1.3 2.7 2.7 3.3 4 2.5 5.5 9.3 53 12.6 76.6 1.2 7.3 1.8 12.4 1.9 12.8z" class="Y"/><path d="M279.4 149.5s10.9 17.7 12.3 18.5 7 1.9 7.7 0c.6-1.9-20-18.5-20-18.5zm54.6 30.4c0-.1 0-.1 0 0-.1 0-7.4-5.8-11.2-7.5-5-2.7-11.2-5.8-12.2-6.6 1.2 1.3 9.2 10.5 12.4 11.2 2.6.6 8.8 2.3 11 2.9zm-63.4 35v-26.4s6.3 10.5 6.7 16.2c.5 5.8-2.5 15.1-6.7 10.2z" class="a"/><path d="M247.9 118.1c-.9-1.6-2.6-4.4-3.1-6-.2-.5-.1-1.4.4-2.3.3-.6.9-1.2 1.6-1.7.4-.3.7-.5 1.2-.6.5-.2 1-.3 1.5-.3s.9.3 1.3.7c1.1 1.6 2.5 3.7 3.4 5.7.6 1.3.4 2.9-.5 3.6l-.4.3-2.3 1.6c-1 .8-2.4.3-3.1-1z" class="b"/><path d="M247.9 118.1c-.9-1.6-2.6-4.4-3.1-6-.2-.5-.1-1.4.4-2.3.1-.1.3-.2.5-.4.4-.3.7-.5 1.2-.6.5-.2 1-.3 1.5-.3s.9.3 1.3.7c1.1 1.6 2.5 3.7 3.4 5.7.4.9.5 1.8.2 2.6l-2.3 1.6c-1 .8-2.4.3-3.1-1z" class="Z"/><path d="M316.4 262.5l-20.9 10.8h-13.9c-3.4-2.3-20.8-14.2-28-23-1.5-1.9-7.1-18.1-11.4-31.2h0c.6 1.7 12.6 27.3 16 30.2s21.4 19.8 26.3 19.6c4.7-.1 30.2-6 31.9-6.4z" class="a"/><path d="M358.5 273.4h-75.4c3.8-1.5 18.3-7 33.3-10.8h.1c12.9-3.3 26.2-5.2 33.4-2.3l.1.1 8.5 13z" fill="#d2e3fc"/><path d="M237 173.7c1.3-.5 3.1-.8 3.9.7 1.4 2.3-3.7 22.2-4.3 24.7l.4-25.4z" class="a"/><path d="M237.4 163l-.4 12s2.5.4 4-.7.6-11.4-3.6-11.3z" class="Z"/><path d="M186.7 232.7c-7.2 1.5-22.9-4.2-22.9-4.2l2.5-24.3-17.7 20.2c-9-3.3-23-12.1-31.4-17.5 21.4-2.3 37.4-23.4 37.4-23.4 14.8 8 31.6 12.7 31.6 12.7l.5 36.5z" fill="#cbe1fd"/><path d="M136.9 210.6c0-1.6 1.3-2.9 3-2.9 1.6 0 2.9 1.3 2.9 3 0 1.6-1.3 2.9-3 2.9-1.6 0-2.9-1.3-2.9-3z" fill="#f99746"/><defs><circle id="A" cx="215.7" cy="52" r="22.1"/><path id="B" d="M204.2 138.6v1.5h1.2v1h-1.2v2.3c0 .6.2.9.7.9.2 0 .4 0 .5-.1v1c-.2.1-.5.1-.9.1-.5 0-.9-.2-1.1-.4-.3-.3-.4-.8-.4-1.4v-2.4h-.7v-1h.7V139l1.2-.4z"/></defs><use xlink:href="#A" fill="#5acbe8"/><clipPath id="C"><use xlink:href="#A"/></clipPath><g clip-path="url(#C)"><path d="M215.7 33.8c7 0 12.7 5.7 12.7 12.7v20.9H203V46.5c0-7 5.7-12.7 12.7-12.7z" fill="#353535"/><path d="M206 65.1h19.4c4.1 0 7.5 3.3 7.5 7.5v4.5h-34.3v-4.5c-.1-4.1 3.3-7.5 7.4-7.5z" fill="#f6cc4f"/><g fill="#ef8746"><path d="M212 65.1V77l-3.7-6 1.5-1.5-3.7-1.5 5.9-2.9zm9.7 4.5l1.5 1.5-3.7 6v-12l6 3-3.8 1.5z"/></g><path d="M212,69.8c2.2,1.8,5.3,1.8,7.5,0v7.3H212V69.8z" fill="#e1ecfd"/><path d="M220.2 49.4v.7a.68.68 0 1 1-1.4 0v-.7a.68.68 0 1 1 1.4 0z" fill="#78b9eb"/><g fill="#f9eeb7"><path d="M219.4 58.4v11.4a5.88 5.88 0 0 1-7.5 0V58.4h7.5z"/><path d="M206.7 43.5h17.9v9.7c0 4.9-4 9-9 9h0c-4.9 0-9-4-9-9v-9.7h.1z"/></g><path d="M226.1 45.7h-5.2c-1.4 0-2.6-.8-3.3-2-1.7 1.7-4 2.7-6.4 2.7h-6v-.7c.4-5.8 5.5-10.1 11.2-9.6 5.2.4 9.3 4.5 9.7 9.6z" fill="#353535"/></g><path d="M183.3 88.7h60.6v14.8h-60.6zm56.8 36.5h-52.9a3.8 3.8 0 0 1-3.8-3.8v-7.1a3.8 3.8 0 0 1 3.8-3.8h52.9a3.8 3.8 0 0 1 3.8 3.8v7.1a3.8 3.8 0 0 1-3.8 3.8z" fill="#5acbe8"/><path d="M236.7 148.8h-46.2a7.17 7.17 0 0 1-7.2-7.2v-.4a7.17 7.17 0 0 1 7.2-7.2h46.2a7.17 7.17 0 0 1 7.2 7.2v.4a7.17 7.17 0 0 1-7.2 7.2z" fill="#e87061"/><g fill="#fff"><path d="M186.7 94.6h54.4v2.9h-54.4z"/><circle cx="189" cy="118" r="2.4"/><circle cx="196" cy="118" r="2.4"/><circle cx="203.1" cy="118" r="2.4"/><circle cx="210.1" cy="118" r="2.4"/><circle cx="217.1" cy="118" r="2.4"/><circle cx="224.1" cy="118" r="2.4"/><circle cx="231.1" cy="118" r="2.4"/><circle cx="238.2" cy="118" r="2.4"/></g><g fill="#fff"><path d="M192.8 143.2l-.6 2h-1.3l2.3-7.1h1.6l2.3 7.1h-1.4l-.6-2h-2.3zm2-1l-.6-1.7c-.1-.4-.3-.9-.4-1.3h0l-.3 1.3-.5 1.7h1.8zm6.8 2.9c-.3.1-.8.3-1.4.3-1.6 0-2.6-1-2.6-2.6 0-1.5 1-2.7 2.8-2.7.5 0 1 .1 1.2.2l-.2 1c-.2-.1-.5-.2-1-.2-1 0-1.6.7-1.6 1.7s.7 1.6 1.6 1.6c.5 0 .8-.1 1-.2l.2.9z"/><use xlink:href="#B"/><path d="M207.8 138.7a.7.7 0 1 1-1.4 0 .68.68 0 0 1 .7-.7c.4 0 .6.3.7.7zm-1.4 6.5v-5.1h1.3v5.1h-1.3zm3.5-5.1l.8 2.6c.1.5.3.9.3 1.3h0l.3-1.3.8-2.6h1.4l-1.9 5.1h-1.3l-1.9-5.1h1.5zm7.3 5.1l-.1-.6c-.3.4-.8.7-1.5.7-1 0-1.6-.7-1.6-1.5 0-1.3 1.1-1.9 3-1.9v-.1c0-.3-.1-.9-1-.9-.5 0-1 .2-1.4.4l-.3-.8c.4-.2 1-.5 1.8-.5 1.6 0 2.1 1 2.1 2.1v1.8c0 .5 0 .9.1 1.2h-1.1zm-.2-2.5c-.9 0-1.8.2-1.8 1 0 .5.3.7.7.7.5 0 .9-.3 1-.7v-1z"/><use xlink:href="#B" x="16.9"/><path d="M224.6 138.7a.7.7 0 1 1-1.4 0 .68.68 0 0 1 .7-.7c.5 0 .7.3.7.7zm-1.3 6.5v-5.1h1.3v5.1h-1.3zm7.5-2.6c0 1.9-1.3 2.7-2.6 2.7-1.4 0-2.6-1-2.6-2.6 0-1.7 1.1-2.7 2.6-2.7 1.6 0 2.6 1.1 2.6 2.6zm-3.8.1c0 1 .5 1.7 1.3 1.7.7 0 1.2-.7 1.2-1.8 0-.8-.4-1.7-1.2-1.7-1 0-1.3.9-1.3 1.8zm4.9-1.1v-1.5h1.1l.1.8c.2-.4.8-.9 1.6-.9.9 0 1.8.6 1.8 2.2v3h-1.3v-2.9c0-.7-.3-1.3-1-1.3-.5 0-.9.4-1 .8 0 .1-.1.3-.1.4v3h-1.3v-3.6z"/></g></svg>